PathFileType	4	(X/Y/Z)	/Users/itak/Documents/Research/Walk-IL/dataset/trc/00015_00004.trc
DataRate	CameraRate	NumFrames	NumMarkers	Units	OrigDataRate	OrigDataStartFrame	OrigNumFrames
100.000000	100.000000	4	53	mm	100.000000	147	588
Frame#	Time	RPSI			LPSI			L3			STRN			T10			C7			CLAV			RBAK			LBAK			LSHO			LUPA			LAEL			LAOL			LWTS			LWPS			LFRA			LIFD			LHPS			LHTS			RSHO			RUPA			RAEL			RAOL			RWTS			RWPS			RFRA			RIFD			RHTS			RHPS			RBHD			LFHD			RFHD			LBHD			LHIP			RHIP			RASI			LASI			LKNE			LTHI			LANK			LTIP			LTOE			LMT1			LMT5			LHEE			RKNE			RTHI			RANK			RTIP			RTOE			RMT1			RMT5			RHEE			
		X1	Y1	Z1	X2	Y2	Z2	X3	Y3	Z3	X4	Y4	Z4	X5	Y5	Z5	X6	Y6	Z6	X7	Y7	Z7	X8	Y8	Z8	X9	Y9	Z9	X10	Y10	Z10	X11	Y11	Z11	X12	Y12	Z12	X13	Y13	Z13	X14	Y14	Z14	X15	Y15	Z15	X16	Y16	Z16	X17	Y17	Z17	X18	Y18	Z18	X19	Y19	Z19	X20	Y20	Z20	X21	Y21	Z21	X22	Y22	Z22	X23	Y23	Z23	X24	Y24	Z24	X25	Y25	Z25	X26	Y26	Z26	X27	Y27	Z27	X28	Y28	Z28	X29	Y29	Z29	X30	Y30	Z30	X31	Y31	Z31	X32	Y32	Z32	X33	Y33	Z33	X34	Y34	Z34	X35	Y35	Z35	X36	Y36	Z36	X37	Y37	Z37	X38	Y38	Z38	X39	Y39	Z39	X40	Y40	Z40	X41	Y41	Z41	X42	Y42	Z42	X43	Y43	Z43	X44	Y44	Z44	X45	Y45	Z45	X46	Y46	Z46	X47	Y47	Z47	X48	Y48	Z48	X49	Y49	Z49	X50	Y50	Z50	X51	Y51	Z51	X52	Y52	Z52	X53	Y53	Z53	

148	1.47	1003.323059082031	1055.03564453125	-201.8137664794922	981.6154174804688	1052.865112304688	-363.6460876464844	988.1851196289062	1119.701416015625	-289.4366149902344	1212.388305664062	1315.51171875	-307.36083984375	961.90185546875	1260.604125976562	-289.6992797851562	1002.008178710938	1528.693603515625	-306.6061096191406	1166.587036132812	1440.937377929688	-309.6261596679688	961.3399658203125	1391.048217773438	-221.7404937744141	981.581298828125	1485.9521484375	-403.4112243652344	1081.133666992188	1494.640258789062	-482.2191162109375	1050.239868164062	1369.030151367188	-557.6282348632812	1052.41015625	1151.6865234375	-582.4303588867188	1000.721008300781	1137.896240234375	-491.4844970703125	1152.244384765625	903.6112670898438	-528.7808837890625	1074.662841796875	885.1039428710938	-568.203125	1069.125732421875	1036.168090820312	-588.5094604492188	1188.756958007812	720.4203491210938	-512.1426391601562	1111.427734375	797.0555419921875	-567.8148803710938	1176.880859375	810.54638671875	-542.6851196289062	1092.076904296875	1519.251953125	-136.3029479980469	1086.477294921875	1447.6728515625	-62.00695419311523	1059.472412109375	1177.904296875	-37.18725204467773	1050.302368164062	1150.000732421875	-132.7457122802734	1195.221435546875	924.1907958984375	-80.22932434082031	1135.12744140625	906.7035522460938	-12.1389045715332	1076.301635742188	1102.481811523438	-23.57375907897949	1221.521362304688	737.4422607421875	-93.32829284667969	1232.542358398438	814.8441162109375	-67.36739349365234	1176.808471679688	807.9818725585938	-17.04165267944336	1024.910400390625	1695.2822265625	-241.7705078125	1199.662109375	1751.46630859375	-346.0849914550781	1190.426391601562	1752.0712890625	-248.0354614257812	1029.761962890625	1697.248168945312	-385.8512573242188	1063.426513671875	957.3856811523438	-483.0284118652344	1131.31787109375	948.25439453125	-113.6649780273438	1221.502319335938	983.2760620117188	-201.1968841552734	1186.878540039062	1003.768798828125	-433.0589294433594	1164.537719726562	515.1519775390625	-458.6484375	1120.450317382812	649.6276245117188	-487.6802673339844	1044.645874023438	32.33892822265625	-463.4037170410156	1075.67333984375	281.34716796875	-475.9558410644531	1267.24462890625	26.26299858093262	-407.2157592773438	1208.59375	37.17792129516602	-388.8267517089844	1167.732666015625	25.83554649353027	-487.399169921875	977.841552734375	41.92285919189453	-407.3825988769531	1139.33837890625	511.0776062011719	-175.3532257080078	1154.375610351562	781.705078125	-126.1914901733398	1033.987060546875	32.24349975585938	-214.076171875	1115.504760742188	389.3020324707031	-179.0684814453125	1263.873291015625	28.1883430480957	-266.7865600585938	1198.741088867188	35.30835342407227	-292.6216735839844	1184.250610351562	27.60830307006836	-196.0657348632812	976.225341796875	34.95412826538086	-256.1335754394531	
149	1.48	1001.723327636719	1055.231201171875	-200.6433410644531	979.0962524414062	1053.32958984375	-362.3506164550781	985.9835815429688	1120.212158203125	-288.0138549804688	1211.172607421875	1315.319702148438	-306.8841552734375	960.4204711914062	1261.236572265625	-287.9848327636719	1001.460815429688	1529.115600585938	-305.0357360839844	1165.744262695312	1440.887939453125	-308.8761291503906	960.7933959960938	1391.623657226562	-219.9595336914062	980.4503784179688	1486.546752929688	-401.7794494628906	1079.667358398438	1494.915405273438	-481.0297546386719	1048.021240234375	1369.461669921875	-556.354736328125	1049.546264648438	1152.171875	-581.3814697265625	998.3106079101562	1138.361206054688	-490.1792297363281	1150.126098632812	904.3347778320312	-528.1990966796875	1072.391723632812	885.6153564453125	-567.2538452148438	1066.368774414062	1036.667602539062	-587.5694580078125	1187.271118164062	721.3215942382812	-511.7520446777344	1109.425659179688	797.6965942382812	-567.0488891601562	1174.9453125	811.3286743164062	-542.2169189453125	1092.393920898438	1519.436767578125	-135.1999664306641	1087.0244140625	1447.927978515625	-60.86800003051758	1059.650268554688	1178.239135742188	-35.67240905761719	1049.762329101562	1150.27197265625	-131.1470336914062	1194.971557617188	924.4417724609375	-79.67723846435547	1135.506103515625	906.9971313476562	-11.1435546875	1076.540405273438	1102.784423828125	-22.15264129638672	1221.33056640625	737.8930053710938	-93.13730621337891	1232.499633789062	815.1988525390625	-67.13433074951172	1177.151611328125	808.2755126953125	-16.39550590515137	1024.438598632812	1695.340087890625	-240.7195434570312	1199.027954101562	1751.736328125	-345.3782653808594	1189.906127929688	1752.39990234375	-247.2988739013672	1029.125610351562	1697.223510742188	-384.8126831054688	1060.376953125	957.8929443359375	-482.2107849121094	1129.833374023438	948.1234741210938	-113.2250823974609	1219.731323242188	983.0469970703125	-201.1745300292969	1184.027587890625	1004.097045898438	-432.8511657714844	1163.93408203125	515.9488525390625	-458.8604125976562	1118.322387695312	650.2510375976562	-487.8909301757812	1044.580444335938	32.45170974731445	-463.5279541015625	1075.431884765625	281.7998657226562	-476.054931640625	1266.958862304688	27.00485610961914	-407.3661804199219	1208.311279296875	37.60474395751953	-388.7774963378906	1167.771240234375	25.9764575958252	-487.3618469238281	977.7601318359375	42.10075759887695	-407.5019836425781	1138.085327148438	511.1189575195312	-175.0666961669922	1152.845458984375	781.7128295898438	-125.9952163696289	1033.992919921875	32.14358901977539	-213.9855346679688	1114.5703125	389.3442687988281	-178.6415557861328	1263.849487304688	28.19413375854492	-266.795166015625	1198.729614257812	35.32169342041016	-292.6032104492188	1184.261596679688	27.6036319732666	-196.0355224609375	976.23583984375	34.87856674194336	-256.0552673339844	
150	1.49	1000.073974609375	1055.39453125	-199.5356140136719	976.5252685546875	1053.726196289062	-361.1295166015625	983.78173828125	1120.686767578125	-286.6613159179688	1209.87939453125	1315.115478515625	-306.4548645019531	958.8984985351562	1261.819580078125	-286.3199157714844	1000.830810546875	1529.509765625	-303.5027770996094	1164.811645507812	1440.81689453125	-308.1715087890625	960.17138671875	1392.161987304688	-218.2138519287109	979.2376708984375	1487.111572265625	-400.1865539550781	1078.11328125	1495.175659179688	-479.8752136230469	1045.713623046875	1369.8837890625	-555.1213989257812	1046.587036132812	1152.653930664062	-580.3697509765625	995.8921508789062	1138.816162109375	-488.888671875	1147.927612304688	905.0521850585938	-527.6399536132812	1070.04150390625	886.115478515625	-566.325439453125	1063.523803710938	1037.154418945312	-586.6519165039062	1185.698852539062	722.20263671875	-511.3660278320312	1107.353393554688	798.3290405273438	-566.2965698242188	1172.939086914062	812.1339111328125	-541.78076171875	1092.6357421875	1519.601440429688	-134.1589965820312	1087.491577148438	1448.164428710938	-59.77565765380859	1059.78515625	1178.558227539062	-34.16722106933594	1049.156616210938	1150.533325195312	-129.5454254150391	1194.71875	924.6956787109375	-79.14691162109375	1135.881225585938	907.2815551757812	-10.14164257049561	1076.754760742188	1103.069458007812	-20.72961616516113	1221.096557617188	738.3218994140625	-92.92449188232422	1232.428100585938	815.568359375	-66.93923950195312	1177.817749023438	808.6171875	-15.53535270690918	1023.894897460938	1695.383666992188	-239.6966552734375	1198.322631835938	1751.966796875	-344.6859741210938	1189.309692382812	1752.681762695312	-246.5707092285156	1028.415283203125	1697.187744140625	-383.80126953125	1057.352783203125	958.350830078125	-481.442626953125	1128.302856445312	947.9996948242188	-112.8315048217773	1217.909545898438	982.8382568359375	-201.1892395019531	1181.14111328125	1004.373413085938	-432.6540832519531	1163.2578125	516.6964721679688	-459.0816040039062	1116.2998046875	650.8038940429688	-488.1617126464844	1044.3154296875	32.52989196777344	-463.6616516113281	1075.010620117188	282.2321166992188	-476.1826782226562	1266.462158203125	27.9558277130127	-407.4936218261719	1207.81689453125	38.1862907409668	-388.7491760253906	1167.638916015625	26.16067504882812	-487.3128356933594	977.4887084960938	42.19880676269531	-407.6404724121094	1136.813720703125	511.1978759765625	-174.8384094238281	1151.275024414062	781.6873779296875	-125.8324813842773	1034.003784179688	32.05258560180664	-213.8963775634766	1113.5849609375	389.3786926269531	-178.2623748779297	1263.82568359375	28.20097541809082	-266.8058166503906	1198.720336914062	35.33520126342773	-292.5887756347656	1184.26953125	27.59724998474121	-196.0065155029297	976.2418823242188	34.80918121337891	-255.9789581298828	
151	1.5	998.365478515625	1055.534057617188	-198.4966583251953	973.93896484375	1054.054931640625	-359.9831848144531	981.6024169921875	1121.112426757812	-285.3886413574219	1208.503295898438	1314.89892578125	-306.0729064941406	957.3216552734375	1262.34375	-284.7263793945312	1000.111633300781	1529.87060546875	-302.0194091796875	1163.782470703125	1440.72216796875	-307.5137023925781	959.4789428710938	1392.658447265625	-216.5172119140625	977.9401245117188	1487.637573242188	-398.6455383300781	1076.47412109375	1495.412231445312	-478.7634582519531	1043.326782226562	1370.28515625	-553.9340209960938	1043.54150390625	1153.118286132812	-579.4030151367188	993.4400024414062	1139.251708984375	-487.6260070800781	1145.651611328125	905.7506713867188	-527.1021728515625	1067.619262695312	886.5912475585938	-565.4222412109375	1060.599853515625	1037.615600585938	-585.7614135742188	1184.034301757812	723.0364379882812	-510.9714050292969	1105.215698242188	798.9384765625	-565.5599975585938	1170.875366210938	812.9617919921875	-541.38037109375	1092.776000976562	1519.738037109375	-133.1819610595703	1087.85986328125	1448.371215820312	-58.73458480834961	1059.865478515625	1178.85009765625	-32.67675399780273	1048.476806640625	1150.771850585938	-127.9446334838867	1194.453002929688	924.9472045898438	-78.63581848144531	1136.23828125	907.5465698242188	-9.141661643981934	1076.930419921875	1103.324462890625	-19.31190872192383	1220.81787109375	738.7032470703125	-92.67315673828125	1232.326782226562	815.9468383789062	-66.77535247802734	1178.664916992188	808.9759521484375	-14.55111885070801	1023.27294921875	1695.411865234375	-238.7049713134766	1197.536254882812	1752.149169921875	-343.9992370605469	1188.627563476562	1752.909301757812	-245.8477325439453	1027.62451171875	1697.14013671875	-382.8210144042969	1054.36669921875	958.7490844726562	-480.72705078125	1126.73193359375	947.8926391601562	-112.4732208251953	1216.041259765625	982.6422729492188	-201.2338409423828	1178.227661132812	1004.582580566406	-432.46728515625	1162.51708984375	517.393798828125	-459.3143920898438	1114.469848632812	651.260986328125	-488.4765014648438	1043.76220703125	32.59305572509766	-463.7840270996094	1074.371826171875	282.6429748535156	-476.3378601074219	1265.678588867188	29.11020469665527	-407.5784912109375	1207.0244140625	38.93418884277344	-388.74072265625	1167.231079101562	26.39816665649414	-487.2462463378906	976.9327392578125	42.24787139892578	-407.7798156738281	1135.528564453125	511.3077087402344	-174.6628875732422	1149.669067382812	781.6361694335938	-125.6987762451172	1034.013427734375	31.96854019165039	-213.8084106445312	1112.551147460938	389.4006652832031	-177.9294128417969	1263.800170898438	28.20998382568359	-266.8179626464844	1198.712280273438	35.34894943237305	-292.5763244628906	1184.275634765625	27.58856391906738	-195.9781646728516	976.2387084960938	34.7453498840332	-255.9022216796875	
